# xmcd
#
# Track frame offsets: 
#        150
#        24632
#        49682
#        76802
#        94938
#        119040
#        144714
#        166780
#        190094
#        213259
#        237738
#        252120
#
# Disc length: 3725 seconds
#
# Revision: 0
# Processed by: cddbd v1.5.2PL0 Copyright (c) Steve Scherf et al.
# Submitted via: ExactAudioCopy v1.0b3
#
DISCID=a40e8b0c
DTITLE=Quang Le, Mai Thien Van - Xom Dem
DYEAR=1900
DGENRE=
TTITLE0=Mai Thien Van - Xom dem
TTITLE1=Quang Le - Mua bong bong
TTITLE2=Hong Truc - Tam neo duong thanh
TTITLE3=Mai Thien Van - Mua rung
TTITLE4=Quang Le - Go cua trai tim
TTITLE5=Hong Truc - Rung la thap
TTITLE6=Phuong buon
TTITLE7=Mai Thien Van - Ngan thu ao tim
TTITLE8=Quang Le - Huong xua
TTITLE9=Hong Truc - Cay dang bo moi
TTITLE10=Mai Thien Van - Thuyen mo
TTITLE11=Quang Le - Hue thuong
EXTD=
EXTT0=
EXTT1=
EXTT2=
EXTT3=
EXTT4=
EXTT5=
EXTT6=
EXTT7=
EXTT8=
EXTT9=
EXTT10=
EXTT11=
PLAYORDER=
